HIERARCHY
ROOT Hips
{
    OFFSET 0.000000 0.000000 0.000000
    CHANNELS 6 Xposition Yposition Zposition Zrotation Xrotation Yrotation
    JOINT Spine
    {
        OFFSET -0.000000 14.517291 0.000000
        CHANNELS 3 Zrotation Xrotation Yrotation
        JOINT Spine1
        {
            OFFSET -0.000000 37.558300 0.000000
            CHANNELS 3 Zrotation Xrotation Yrotation
            JOINT Neck
            {
                OFFSET -0.000000 37.404057 3.400369
                CHANNELS 3 Zrotation Xrotation Yrotation
                JOINT Head
                {
                    OFFSET -0.000000 24.785618 -3.540803
                    CHANNELS 3 Zrotation Xrotation Yrotation
                    End Site
                    {
                        OFFSET -0.000000 35.408028 0.000000
                    }
                }
            }
            JOINT LeftShoulder
            {
                OFFSET 6.992933 33.973492 -0.192664
                CHANNELS 3 Zrotation Xrotation Yrotation
                JOINT LeftArm
                {
                    OFFSET 21.527611 0.000000 0.000000
                    CHANNELS 3 Zrotation Xrotation Yrotation
                    JOINT LeftForeArm
                    {
                        OFFSET 56.353916 0.000000 0.000000
                        CHANNELS 3 Zrotation Xrotation Yrotation
                        JOINT LeftHand
                        {
                            OFFSET 47.774071 0.000000 0.000000
                            CHANNELS 3 Zrotation Xrotation Yrotation
                            End Site
                            {
                                OFFSET 26.556021 0.000000 0.000000
                            }
                        }
                    }
                }
            }
            JOINT RightShoulder
            {
                OFFSET -7.065357 33.973492 -0.192664
                CHANNELS 3 Zrotation Xrotation Yrotation
                JOINT RightArm
                {
                    OFFSET -21.527611 0.000000 0.000000
                    CHANNELS 3 Zrotation Xrotation Yrotation
                    JOINT RightForeArm
                    {
                        OFFSET -56.353916 0.000000 0.000000
                        CHANNELS 3 Zrotation Xrotation Yrotation
                        JOINT RightHand
                        {
                            OFFSET -47.774071 0.000000 0.000000
                            CHANNELS 3 Zrotation Xrotation Yrotation
                            End Site
                            {
                                OFFSET -26.556021 0.000000 0.000000
                            }
                        }
                    }
                }
            }
        }
    }
    JOINT LeftUpLeg
    {
        OFFSET 17.704014 0.000000 0.000000
        CHANNELS 3 Zrotation Xrotation Yrotation
        JOINT LeftLeg
        {
            OFFSET -0.000000 -81.181816 0.000000
            CHANNELS 3 Zrotation Xrotation Yrotation
            JOINT LeftFoot
            {
                OFFSET -0.000000 -62.821102 0.000000
                CHANNELS 3 Zrotation Xrotation Yrotation
                JOINT LeftToeBase
                {
                    OFFSET -0.000000 -11.507608 26.556021
                    CHANNELS 3 Zrotation Xrotation Yrotation
                    End Site
                    {
                        OFFSET -0.000000 0.000000 7.081605
                    }
                }
            }
        }
    }
    JOINT RightUpLeg
    {
        OFFSET -17.704014 0.000000 0.000000
        CHANNELS 3 Zrotation Xrotation Yrotation
        JOINT RightLeg
        {
            OFFSET -0.000000 -81.181816 0.000000
            CHANNELS 3 Zrotation Xrotation Yrotation
            JOINT RightFoot
            {
                OFFSET -0.000000 -62.821102 0.000000
                CHANNELS 3 Zrotation Xrotation Yrotation
                JOINT RightToeBase
                {
                    OFFSET -0.000000 -11.507608 26.556021
                    CHANNELS 3 Zrotation Xrotation Yrotation
                    End Site
                    {
                        OFFSET -0.000000 0.000000 7.081605
                    }
                }
            }
        }
    }
}
MOTION
Frames:    6
Frame Time:    0.008333
-19.461349    162.520401    -75.912704    -8.305001    -25.225723    44.458878    2.564059    5.985689    -4.356267    4.658072    9.701439    -1.801027    18.446760    2.067732    -6.272654    7.105571    -4.109540    -7.695228    13.376238    3.778383    -23.385500    -22.206158    10.386639    -72.149651    -10.805473    -27.488699    -110.788483    -16.291132    -37.769249    -24.543003    13.210314    8.204862    -9.318639    32.311848    16.807394    16.708260    -13.135674    2.997394    36.060059    -23.389448    0.404050    32.362949    27.764551    0.567104    5.059425    -5.272225    40.994709    -17.480598    9.379075    -24.802071    34.918858    0.000000    0.000000    0.000000    -84.146698    -42.700539    -49.554985    7.903844    15.278643    -8.246964    20.824141    10.633812    -35.285847    0.000000    0.000000    0.000000    
-19.459141    162.541931    -75.904076    -8.281490    -25.286415    44.486057    2.591613    6.016953    -4.348724    4.649689    9.734649    -1.798393    18.421228    2.086421    -6.309500    7.173621    -4.145157    -7.712933    13.320563    3.763907    -23.356974    -22.335678    10.179749    -71.965286    -10.482305    -28.335930    -110.211929    -16.617308    -37.937851    -24.711988    13.212918    8.200750    -9.340161    32.350739    16.811180    16.685162    -13.142134    3.007509    36.066483    -23.382372    0.419539    32.361794    27.804394    0.629246    5.067122    -5.249260    40.963524    -17.495716    9.325220    -24.812860    34.869133    0.000000    0.000000    0.000000    -84.056541    -42.678532    -49.468876    7.906318    15.293613    -8.246120    20.812840    10.597670    -35.260525    0.000000    0.000000    0.000000    
-19.467596    162.559509    -75.902832    -8.264712    -25.329840    44.501057    2.609302    6.056797    -4.328702    4.641745    9.735685    -1.790416    18.404324    2.105449    -6.338236    7.228042    -4.179354    -7.725739    13.260950    3.749635    -23.312862    -22.432304    9.993629    -71.803955    -10.028372    -29.212950    -109.547943    -16.456709    -38.093098    -24.666224    13.214127    8.218061    -9.387145    32.387589    16.826458    16.694649    -13.150134    3.002488    36.057098    -23.404041    0.408260    32.366768    27.834990    0.668624    5.067988    -5.239699    40.943787    -17.502562    9.290978    -24.808186    34.840313    0.000000    0.000000    0.000000    -83.997681    -42.670547    -49.408527    7.921046    15.300998    -8.244748    20.794767    10.596058    -35.276398    0.000000    0.000000    0.000000    
-19.478666    162.578613    -75.901672    -8.257305    -25.365610    44.520645    2.625345    6.083440    -4.314590    4.636563    9.735954    -1.784770    18.393932    2.115667    -6.366399    7.268026    -4.200068    -7.743653    13.196023    3.726614    -23.268721    -22.623173    9.788047    -71.627083    -9.699532    -29.973120    -108.914421    -16.661116    -38.223801    -24.817671    13.215486    8.231065    -9.419825    32.426521    16.788837    16.686363    -13.119149    3.043925    36.057529    -23.422207    0.430713    32.381721    27.867739    0.684092    5.051395    -5.241698    40.939995    -17.508417    9.249969    -24.799437    34.821819    0.000000    0.000000    0.000000    -83.956245    -42.659294    -49.404835    7.927744    15.325214    -8.242462    20.767120    10.588008    -35.246006    0.000000    0.000000    0.000000    
-19.491184    162.606079    -75.904625    -8.256123    -25.400881    44.539444    2.649507    6.111992    -4.310106    4.624276    9.724850    -1.781084    18.381048    2.134229    -6.393569    7.305446    -4.213998    -7.759658    13.132253    3.720108    -23.224607    -22.733795    9.613178    -71.456810    -9.316435    -30.832623    -108.256775    -16.911919    -38.384357    -25.001593    13.220138    8.236689    -9.446601    32.461800    16.798790    16.673937    -13.118494    3.047560    36.050259    -23.425920    0.431646    32.383709    27.901247    0.691676    5.016029    -5.259456    40.931187    -17.494610    9.206517    -24.780308    34.819942    0.000000    0.000000    0.000000    -83.914597    -42.650024    -49.386024    7.936707    15.357768    -8.212504    20.742216    10.554904    -35.236530    0.000000    0.000000    0.000000    
-19.514231    162.633362    -75.907532    -8.280201    -25.421986    44.537567    2.660545    6.126694    -4.294942    4.641854    9.696626    -1.776067    18.355257    2.153254    -6.419255    7.340516    -4.224296    -7.772979    13.052640    3.714134    -23.173672    -22.919382    9.416389    -71.288948    -8.983346    -31.609526    -107.590775    -17.225130    -38.526085    -25.217241    13.205688    8.254437    -9.467046    32.501331    16.809614    16.658293    -13.115899    3.047580    36.045822    -23.428469    0.430712    32.378124    27.945944    0.682633    4.987415    -5.293057    40.915531    -17.479626    9.177026    -24.750792    34.835098    0.000000    0.000000    0.000000    -83.887894    -42.659313    -49.384907    7.946574    15.386507    -8.225289    20.734970    10.526347    -35.221317    0.000000    0.000000    0.000000    
